<svg width="28" height="21" viewBox="0 0 28 21" fill="none" xmlns="http://www.w3.org/2000/svg">
<path d="M18.0092 1.66503C16.6566 1.20414 15.2065 0.954102 13.6979 0.954102C7.79402 0.954102 2.78462 4.78399 1.01982 10.0937C0.930895 10.3574 0.930895 10.643 1.01982 10.9067C1.63295 12.7466 2.63543 14.4084 3.92948 15.7946" stroke="#737677" stroke-width="1.90858" stroke-linecap="round" stroke-linejoin="round"/>
<path d="M17.4945 11.1329C17.4945 12.1453 17.0924 13.1162 16.3765 13.8321C15.6607 14.5479 14.6897 14.9501 13.6774 14.9501M12.3936 7.53809C11.8663 7.72641 11.3817 8.03026 10.9782 8.43378C10.542 8.86997 10.2223 9.40085 10.0391 9.97812" stroke="#737677" stroke-width="1.90858" stroke-linecap="round" stroke-linejoin="round"/>
<path d="M23.3691 5.09961C24.7085 6.50549 25.7445 8.20298 26.3724 10.0871C26.4615 10.3505 26.4615 10.6355 26.3724 10.9002C24.6089 16.2099 19.5995 20.0398 13.6956 20.0398C11.9247 20.0398 10.2342 19.6952 8.6875 19.0695" stroke="#737677" stroke-width="1.90858" stroke-linecap="round" stroke-linejoin="round"/>
<rect x="22.5781" y="0.830154" width="1.07812" height="26.2637" rx="0.539062" transform="rotate(45 22.5781 0.830154)" fill="#737677" stroke="#737677"/>
</svg>
