<svg width="32" height="32" viewBox="0 0 32 32" fill="none" xmlns="http://www.w3.org/2000/svg">
<path d="M29.3302 11.8389C29.241 9.78282 28.991 8.4443 28.2906 7.38545C27.8876 6.77627 27.3872 6.24645 26.8118 5.8199C25.2564 4.66699 23.0622 4.66699 18.6739 4.66699H13.3209C8.93255 4.66699 6.73836 4.66699 5.183 5.8199C4.60758 6.24645 4.10707 6.77627 3.70414 7.38545C3.00386 8.44418 2.75386 9.78253 2.66462 11.8382C2.64935 12.1898 2.95215 12.4587 3.28392 12.4587C5.13163 12.4587 6.6295 14.0443 6.6295 16.0003C6.6295 17.9563 5.13163 19.5419 3.28392 19.5419C2.95215 19.5419 2.64935 19.8109 2.66462 20.1625C2.75386 22.2182 3.00386 23.5565 3.70414 24.6153C4.10707 25.2243 4.60758 25.7542 5.183 26.1807C6.73836 27.3337 8.93255 27.3337 13.3209 27.3337H18.6739C23.0622 27.3337 25.2564 27.3337 26.8118 26.1807C27.3872 25.7542 27.8876 25.2243 28.2906 24.6153C28.991 23.5563 29.241 22.2178 29.3302 20.1618V11.8389Z" stroke="#43D2CB" stroke-width="1.5" stroke-linejoin="round"/>
<path d="M17.3359 16H22.6693" stroke="#43D2CB" stroke-width="1.5" stroke-linecap="round" stroke-linejoin="round"/>
<path d="M12 21.333H22.6667" stroke="#43D2CB" stroke-width="1.5" stroke-linecap="round" stroke-linejoin="round"/>
</svg>
